<?xml version="1.0" standalone="no"?>
<!DOCTYPE svg PUBLIC "-//W3C//DTD SVG 20010904//EN"
 "http://www.w3.org/TR/2001/REC-SVG-20010904/DTD/svg10.dtd">
<svg version="1.0" xmlns="http://www.w3.org/2000/svg"
 width="325.000000pt" height="325.000000pt" viewBox="0 0 325.000000 325.000000"
 preserveAspectRatio="xMidYMid meet">
<metadata>
Created by potrace 1.14, written by Peter Selinger 2001-2017
</metadata>
<g transform="translate(0.000000,325.000000) scale(0.100000,-0.100000)"
fill="#000000" stroke="none">
<path d="M1480 3196 c-3 -2 -30 -7 -60 -9 -175 -17 -394 -90 -590 -199 -128
-70 -305 -220 -411 -348 -57 -69 -119 -157 -119 -169 0 -5 -4 -11 -9 -13 -19
-7 -147 -289 -167 -368 -2 -8 -10 -40 -18 -70 -16 -59 -23 -99 -36 -195 -8
-60 -6 -343 3 -380 3 -11 8 -40 12 -65 4 -25 9 -53 11 -62 2 -10 6 -28 9 -40
27 -125 156 -416 211 -479 8 -8 14 -21 14 -27 0 -7 5 -12 10 -12 6 0 10 -5 10
-11 0 -12 15 -32 102 -139 90 -112 193 -205 324 -295 43 -30 82 -55 86 -55 4
0 29 -13 55 -28 114 -67 315 -134 481 -161 102 -17 391 -22 448 -8 12 3 38 8
58 11 130 21 288 73 421 138 55 27 107 56 116 64 8 8 19 14 23 14 5 0 31 17
60 37 150 108 272 229 372 368 47 65 143 227 148 250 2 6 13 32 24 58 23 50
78 224 86 267 2 14 7 36 10 50 19 74 30 402 16 468 -5 20 -14 69 -20 107 -7
39 -26 113 -42 165 -31 97 -107 272 -120 278 -5 2 -6 8 -2 13 3 5 0 9 -5 9 -6
0 -11 5 -11 10 0 34 -159 254 -257 356 -66 69 -255 224 -273 224 -5 0 -15 6
-22 13 -42 38 -297 157 -337 157 -10 0 -21 4 -27 8 -8 7 -71 25 -129 36 -11 2
-31 7 -45 10 -66 16 -399 34 -410 22z"/>
</g>
</svg>
